<svg width="128" height="128" viewBox="0 0 128 128" fill="none" xmlns="http://www.w3.org/2000/svg">
<rect width="128" height="128" rx="64" fill="#FF0000"/>
<path fill-rule="evenodd" clip-rule="evenodd" d="M32.1213 41.4944L32.1231 37.7462C32.1231 34.6412 34.6413 32.1212 37.7481 32.1212H90.2481C93.3531 32.1212 95.8731 34.6412 95.8731 37.7462V41.4944C95.8731 42.5294 95.0313 43.3694 93.9981 43.3694H33.9963C32.9594 43.3694 32.1194 42.5294 32.1213 41.4944Z" fill="black"/>
<path fill-rule="evenodd" clip-rule="evenodd" d="M35.8731 95.8619L35.8713 92.11H92.1231V95.86C92.1231 98.9669 89.6031 101.485 86.4981 101.485H41.4981C38.3912 101.483 35.8731 98.9669 35.8731 95.8619Z" fill="black"/>
<path fill-rule="evenodd" clip-rule="evenodd" d="M37.7481 92.1194V37.7444H90.2481V92.1194C90.2481 94.1894 88.5625 95.8637 86.4925 95.8637H41.4925C39.4244 95.8637 37.7481 94.1894 37.7481 92.1194Z" fill="white"/>
<path fill-rule="evenodd" clip-rule="evenodd" d="M35.8731 92.1194V37.7444C35.8731 36.7112 36.7131 35.8694 37.7481 35.8694H90.2481C91.2812 35.8694 92.1231 36.7112 92.1231 37.7444V92.1194C92.1231 95.2319 89.59 97.7388 86.4925 97.7388H41.4925C38.3856 97.7388 35.8731 95.2263 35.8731 92.1194ZM88.3731 92.1194V39.6194H39.6231V92.1194C39.6231 93.1544 40.4575 93.9887 41.4925 93.9887H86.4925C87.5331 93.9887 88.3731 93.1488 88.3731 92.1194Z" fill="black"/>
<path fill-rule="evenodd" clip-rule="evenodd" d="M33.9963 37.7444L33.9981 33.9962C33.9981 31.9262 35.6781 30.2462 37.7481 30.2462H90.2481C92.3181 30.2462 93.9981 31.9262 93.9981 33.9962V37.7444H33.9963Z" fill="white"/>
<path fill-rule="evenodd" clip-rule="evenodd" d="M32.1213 37.7444L32.1231 33.9962C32.1231 30.8912 34.6413 28.3712 37.7481 28.3712H90.2481C93.3531 28.3712 95.8731 30.8912 95.8731 33.9962V37.7444C95.8731 38.7794 95.0313 39.6194 93.9981 39.6194H33.9963C32.9594 39.6194 32.1194 38.7794 32.1213 37.7444ZM92.1231 35.8694V33.9962C92.1231 32.9631 91.2812 32.1212 90.2481 32.1212H37.7481C36.7131 32.1212 35.8731 32.9631 35.8731 33.9981L35.8713 35.8694H92.1231Z" fill="black"/>
<path fill-rule="evenodd" clip-rule="evenodd" d="M52.7481 28.3694C52.7481 24.2312 56.1081 20.8694 60.2481 20.8694H67.7481C71.8862 20.8694 75.2481 24.2312 75.2481 28.3694C75.2481 29.4044 74.4062 30.2444 73.3731 30.2444C72.3381 30.2444 71.4981 29.4044 71.4981 28.3694C71.4981 26.305 69.8125 24.6194 67.7481 24.6194H60.2481C58.18 24.6194 56.4981 26.305 56.4981 28.3694C56.4981 29.4044 55.6562 30.2444 54.6231 30.2444C53.5881 30.2444 52.7481 29.4044 52.7481 28.3694Z" fill="black"/>
<path fill-rule="evenodd" clip-rule="evenodd" d="M62.1212 84.6212V48.9962C62.1212 47.9631 62.9612 47.1212 63.9962 47.1212C65.0294 47.1212 65.8712 47.9631 65.8712 48.9962V84.6212C65.8712 85.6562 65.0294 86.4962 63.9962 86.4962C62.9612 86.4962 62.1212 85.6562 62.1212 84.6212Z" fill="black"/>
<path fill-rule="evenodd" clip-rule="evenodd" d="M47.1213 84.6212V48.9962C47.1213 47.9631 47.9613 47.1212 48.9963 47.1212C50.0294 47.1212 50.8712 47.9631 50.8712 48.9962V84.6212C50.8712 85.6562 50.0294 86.4962 48.9963 86.4962C47.9613 86.4962 47.1213 85.6562 47.1213 84.6212Z" fill="black"/>
<path fill-rule="evenodd" clip-rule="evenodd" d="M77.1194 84.6212V48.9962C77.1194 47.9631 77.9594 47.1212 78.9944 47.1212C80.0275 47.1212 80.8694 47.9631 80.8694 48.9962V84.6212C80.8694 85.6562 80.0275 86.4962 78.9944 86.4962C77.9594 86.4962 77.1194 85.6562 77.1194 84.6212Z" fill="black"/>
</svg>
